<svg xmlns="http://www.w3.org/2000/svg" viewBox="0 0 64 64" role="img" aria-labelledby="title desc">
  <title id="title">Suhani Shukla</title>
  <desc id="desc">Monogram favicon with a dark gradient background</desc>
  <defs>
    <linearGradient id="g" x1="0" y1="0" x2="1" y2="1">
      <stop offset="0%" stop-color="#9a9ecf"/>
      <stop offset="100%" stop-color="#b09ac0"/>
    </linearGradient>
  </defs>
  <rect width="64" height="64" rx="16" fill="#0d0d0d"/>
  <circle cx="32" cy="32" r="21" fill="url(#g)" opacity="0.18"/>
  <path d="M18 41.5c2.6 2.7 6.8 4.5 11.8 4.5 7.2 0 12.2-3.4 12.2-9.2 0-5.8-4.7-7.8-10.4-8.9-4.4-.8-7.5-1.4-7.5-4.2 0-2.4 2.2-4.1 5.9-4.1 3.3 0 6.1 1.1 8.3 2.9l3.2-4.2c-3-2.4-6.8-3.8-11.1-3.8-6.8 0-11.4 3.5-11.4 9 0 5.7 4.6 7.6 10.3 8.7 4.4.8 7.6 1.5 7.6 4.4 0 2.7-2.6 4.4-6.5 4.4-4.2 0-7.6-1.5-10.4-4z" fill="#f4f0ea"/>
</svg>
